#!OML:ASF E:/inclinewalkrobotboard/Project1/Captureday1/Session1/subject1.ASF
:FULLY-SPECIFIED
:DEGREES
338
root 0 0 0 -1.6085321408020339 -5.2410137724969434 -7.175288752674189
lowerback 11.486553214830625 1.8478279774894215 6.646351530890846
upperback 0.8114881969894111 3.378101106700326 2.235126153815651
thorax -5.347164017938976 1.5319741587805138 -1.894575591065974
lowerneck -17.550654878176605 -3.5196933080634927 -1.5953171282545915
upperneck 19.70130165259237 -4.446939765515285 0.259177104742923
head 9.152040852329312 -2.1836857195558683 -0.22398973819595064
rclavicle 2.059686037171055E-15 3.3936032471718715E-16
rhumerus -27.903017629079766 -17.371385337437204 -77.94483522658223
rradius 29.76355878920542
rwrist 0.0830432019747418
rhand -19.30103834637145 24.618444958811136
rfingers 7.125020000000017
rthumb 7.016523596575478 -5.292826834230969
lclavicle -1.66980867808689E-15 9.464863805419042E-16
lhumerus -35.231046167750776 -0.6988943293802505 84.87922966081015
lradius 27.963239822432882
lwrist 6.544228652645979
lhand -27.285959952021788 23.737478168633622
lfingers 7.125020000000016
lthumb -0.6886634579846795 53.72805893139378
rfemur 4.940248448041314 8.316667162388045 35.69279573608643
rtibia 28.628966895624902
rfoot -21.863754818125923 -6.968240539229627
rtoes 3.855423724829463
lfemur -27.033832434025967 -3.4984200725098207 -11.115633243023787
ltibia 20.953749595573996
lfoot -5.104369397183289 4.3869848677283345
ltoes -3.4062242546126775
339
root 0 0 0 -1.7237525344061444 -5.288946836189071 -7.049348959953143
lowerback 11.50689717189076 1.8771870398612815 6.508602570821292
upperback 0.8062685510662787 3.398422405696917 2.189833462905356
thorax -5.366287455386831 1.5445101589865176 -1.8679939664052072
lowerneck -17.48733400447044 -3.5425233084725773 -1.6035956090616397
upperneck 19.459033329124406 -4.492507260388225 0.3490359907008491
head 9.063946215026208 -2.1976843113572206 -0.19594004756324634
rclavicle 2.259707871406658E-15 -1.26757292280119E-15
rhumerus -27.895013229087105 -17.66055240361875 -77.77521898745277
rradius 29.728753109681897
rwrist 0.14174907065365172
rhand -19.318993827041133 24.591852196894568
rfingers 7.125020000000017
rthumb 7.000152359378425 -5.322647401274342
lclavicle -1.526996539215477E-15 -7.963854374456985E-16
lhumerus -35.45053599902984 -0.3374742172159986 84.71453860901946
lradius 27.515311712784296
lwrist 6.2378070505201695
lhand -27.266079840318476 23.859774164342344
lfingers 7.125020000000017
lthumb -0.6690733641409334 53.853603157954666
rfemur 11.427090704370602 8.346444374329197 35.39782289394198
rtibia 26.236641068054375
rfoot -20.919520454054744 -5.371211432366273
rtoes -2.48707806327182
lfemur -26.31876934238636 -4.510414811812936 -11.339664154285963
ltibia 20.162897603045877
lfoot -5.525787442114574 4.604440502717267
ltoes -1.5634284248019377
340
root 0 0 0 -1.985385852897966 -5.234319950764046 -6.721274812030742
lowerback 11.616701012347345 1.8982201342733824 6.1272125500182515
upperback 0.6952782588616588 3.38516837328661 2.0877367288199915
thorax -5.558224728429264 1.5440030032516088 -1.763121253280318
lowerneck -17.231912222807754 -3.617729454963553 -1.5507610733840245
upperneck 19.461472505321005 -4.645027474349708 0.47349234208737645
head 9.058043291574094 -2.2483070001124057 -0.1762604962028415
rclavicle 1.362828625302921E-15 -2.348934841506228E-15
rhumerus -28.28070120486105 -18.55002313168577 -77.42781704520397
rradius 29.30007407928461
rwrist 0.5264060072309071
rhand -19.298313961706597 24.370877343951367
rfingers 7.125020000000017
rthumb 7.020944989573281 -5.552821528091162
lclavicle -2.5376099904112934E-15 -2.1554680165010184E-15
lhumerus -35.751446378944905 0.3085857014806275 84.41763006024809
lradius 26.812727775555494
lwrist 5.7961069079901915
lhand -27.19364655849987 24.07010621334391
lfingers 7.125020000000018
lthumb -0.5993184786583177 54.07134081429457
rfemur 12.251965885973611 8.019623478825851 35.42255521067131
rtibia 29.079439296066745
rfoot -19.085251311407127 -4.144455560483889
rtoes -4.961751343935099
lfemur -25.84737051921434 -4.365981943456315 -11.896158487258413
ltibia 20.781908052519043
lfoot -5.447626145498663 4.049574553953421
ltoes -1.4596272651648512
341
root 0 0 0 -2.130084014621854 -5.188367116910672 -6.1975072425779905
lowerback 11.514437797478914 1.9497344466116173 5.588520367290142
upperback 0.573523628591657 3.381640955838156 1.8969564150625922
thorax -5.641339026206209 1.551836497283811 -1.6597532110438835
lowerneck -16.88106426566982 -3.649008128090107 -1.4628720540493714
upperneck 19.53604546474114 -4.748300638079991 0.623370026817713
head 9.054460775398427 -2.2717094549468038 -0.1464593989304453
rclavicle 8.077280550476912E-16 -2.2927863569550456E-15
rhumerus -28.85569484289494 -19.702090774560155 -76.97690093654538
rradius 28.74806048201126
rwrist 0.9548962870016497
rhand -19.26834414804049 24.050250719945378
rfingers 7.125020000000017
rthumb 7.050032898904338 -5.881535780396678
lclavicle -3.0377949505000908E-15 -2.3492700799854076E-15
lhumerus -36.00616129103153 1.1556364203042637 84.01194551126467
lradius 26.00340243264057
lwrist 5.316196730236788
lhand -27.04852486164054 24.360236296434465
lfingers 7.125020000000019
lthumb -0.4594242693393058 54.36723789711209
rfemur 9.739529420877286 6.098527987208666 32.174170030100335
rtibia 36.018731408506405
rfoot -13.234614410078597 -2.11893673391247
rtoes -4.853727294617024
lfemur -24.676601282507974 -3.7808107516385867 -13.759550666688348
ltibia 22.516803478406207
lfoot -5.065266434956236 2.530177452364689
ltoes 0.1902472602141252
342
root 0 0 0 -2.200877509684738 -5.19005338397859 -4.953619418097759
lowerback 11.050299927509851 2.080003856781836 4.431083417175637
upperback 0.40802423724958947 3.3843784878979415 1.4561362157466302
thorax -5.573952461123534 1.5763319846004773 -1.4656519774011865
lowerneck -16.253716575253698 -3.6034838920599235 -1.306710706776785
upperneck 19.807818278808554 -4.779527261248943 0.8658539314495628
head 9.071468292914695 -2.248646949725364 -0.08557342029358939
rclavicle 1.0205944868271421E-15 -2.099459898276304E-15
rhumerus -29.531893517098688 -20.875421225912923 -76.55117941962922
rradius 28.15238339938264
rwrist 1.412199429136984
rhand -19.192692397838787 23.68522239880839
rfingers 7.125020000000019
rthumb 7.122474066424549 -6.2457127368023
lclavicle -2.7616425486755313E-15 -2.4068182401357E-15
lhumerus -36.19666240400407 2.093810873168287 83.5876798416164
lradius 25.176950351976103
lwrist 4.794073823024476
lhand -26.843834984991997 24.53495690451344
lfingers 7.125020000000021
lthumb -0.26229934857311665 54.546413055344985
rfemur -0.8191171826697099 3.7112716645624486 24.874341061691645
rtibia 44.555493438851954
rfoot 1.2356943794731148 -0.4980946711677947
rtoes 1.9855864579756555
lfemur -21.697582493061716 -2.769035512448259 -18.334482923334754
ltibia 26.229924063353057
lfoot -4.4252046006806225 -0.6664280699268397
ltoes 5.7460826752186875
